<?xml version="1.0" encoding="utf-8"?>
<!-- Generator: Adobe Illustrator 27.5.0, SVG Export Plug-In . SVG Version: 6.00 Build 0)  -->
<svg version="1.1" xmlns="http://www.w3.org/2000/svg" xmlns:xlink="http://www.w3.org/1999/xlink" x="0px" y="0px"
	 viewBox="0 0 750 500" style="enable-background:new 0 0 750 500;" xml:space="preserve">
<g id="BACKGROUND">
	<g>
		<g>
			<rect style="fill:#FFFFFF;" width="750" height="500"/>
		</g>
		<path style="fill:#DFF1F4;" d="M587.296,223.317c-3.309-2.125-5.293-5.763-5.291-9.695c0-0.021,0-0.043,0-0.064
			c0-87.566-92.68-158.552-207.006-158.552s-207.006,70.986-207.006,158.552c0,2.144,0.072,4.276,0.182,6.399
			c-37.712,22.122-62.039,56.958-62.039,96.152c0,66.852,70.756,121.047,158.039,121.047c22.67,0,44.223-3.658,63.711-10.243
			c30.525-10.315,63.7-10.315,94.225,0c19.488,6.586,41.041,10.243,63.711,10.243c87.282,0,158.039-54.195,158.039-121.047
			C643.862,278.845,621.872,245.521,587.296,223.317z"/>
	</g>
</g>
<g id="OBJECTS">
	<g>
		<g>
			<g>
				<path style="fill:#83A9FF;" d="M619.976,217.949H406.285c-7.592,0-13.746-6.154-13.746-13.746V60.79
					c0-5.137,4.164-9.301,9.301-9.301h218.135c7.591,0,13.746,6.154,13.746,13.746v138.969
					C633.722,211.795,627.568,217.949,619.976,217.949z"/>
				<path style="fill:#FFFFFF;" d="M525.21,79.241H415.131c-2.433,0-4.405-1.972-4.405-4.405v-7.417
					c0-2.433,1.972-4.405,4.405-4.405H525.21c2.433,0,4.405,1.972,4.405,4.405v7.417C529.615,77.268,527.643,79.241,525.21,79.241z"
					/>
				<line style="fill:none;stroke:#FFFFFF;stroke-miterlimit:10;" x1="410.726" y1="87.695" x2="617.393" y2="87.695"/>
				<g>
					<g>
						<line style="fill:none;stroke:#FFFFFF;stroke-miterlimit:10;" x1="410.726" y1="117.691" x2="617.393" y2="117.691"/>
						<line style="fill:none;stroke:#FFFFFF;stroke-miterlimit:10;" x1="410.726" y1="146.535" x2="617.393" y2="146.535"/>
						<line style="fill:none;stroke:#FFFFFF;stroke-miterlimit:10;" x1="410.726" y1="175.378" x2="617.393" y2="175.378"/>
					</g>
					<g>
						<line style="fill:none;stroke:#FFFFFF;stroke-miterlimit:10;" x1="436.282" y1="96.239" x2="436.282" y2="196.829"/>
						<line style="fill:none;stroke:#FFFFFF;stroke-miterlimit:10;" x1="467.393" y1="96.239" x2="467.393" y2="196.829"/>
						<line style="fill:none;stroke:#FFFFFF;stroke-miterlimit:10;" x1="498.504" y1="96.239" x2="498.504" y2="196.829"/>
						<line style="fill:none;stroke:#FFFFFF;stroke-miterlimit:10;" x1="529.615" y1="96.239" x2="529.615" y2="196.829"/>
						<line style="fill:none;stroke:#FFFFFF;stroke-miterlimit:10;" x1="560.726" y1="96.239" x2="560.726" y2="196.829"/>
						<line style="fill:none;stroke:#FFFFFF;stroke-miterlimit:10;" x1="591.837" y1="96.239" x2="591.837" y2="196.829"/>
					</g>
				</g>
			</g>
			<path style="fill:#FFFFFF;" d="M489.963,133.124c0,3.787-3.07,6.857-6.857,6.857c-3.787,0-6.857-3.07-6.857-6.857
				c0-3.787,3.07-6.857,6.857-6.857C486.893,126.267,489.963,129.337,489.963,133.124z"/>
			<path style="fill:#FFFFFF;" d="M613.778,105.273c0,3.787-3.07,6.857-6.857,6.857s-6.857-3.07-6.857-6.857s3.07-6.857,6.857-6.857
				S613.778,101.486,613.778,105.273z"/>
			<path style="fill:#FFFFFF;" d="M429.962,188.799c0,3.787-3.07,6.857-6.857,6.857c-3.787,0-6.857-3.07-6.857-6.857
				s3.07-6.857,6.857-6.857C426.892,181.942,429.962,185.012,429.962,188.799z"/>
			<path style="fill:#E71C2E;" d="M520.916,105.273c0,3.787-3.07,6.857-6.857,6.857c-3.787,0-6.857-3.07-6.857-6.857
				s3.07-6.857,6.857-6.857C517.846,98.416,520.916,101.486,520.916,105.273z"/>
			<g>
				<polygon style="fill:#EDCB3A;" points="543.364,139.69 538.746,135.072 539.453,134.365 543.364,138.276 555.42,126.22 
					556.127,126.927 				"/>
			</g>
			<g>
				<polygon style="fill:#EDCB3A;" points="448.677,166.961 444.059,162.343 444.766,161.636 448.677,165.547 460.733,153.491 
					461.44,154.198 				"/>
			</g>
		</g>
		<g>
			<g>
				<path style="fill:#FFFFFF;" d="M292.436,264.874c0.02-1.697,1.162-3.196,2.793-3.663c40.244-11.526,69.783-48.651,69.783-92.547
					v-66.507H172.512v66.507c0,43.896,29.539,81.021,69.783,92.547c1.631,0.467,2.773,1.966,2.793,3.663
					c0.002,0.159,0.003,0.318,0.003,0.477c0,0.01,0,0.02,0,0.03c-0.001,1.699-1.154,3.202-2.788,3.67
					c-40.248,11.523-69.79,48.649-69.79,92.549v66.508h192.501V361.6c0-43.899-29.543-81.025-69.791-92.549
					c-1.634-0.468-2.787-1.971-2.788-3.671c0-0.01,0-0.02,0-0.03C292.434,265.192,292.435,265.033,292.436,264.874z"/>
				<path style="fill:#D0EFF4;" d="M268.762,256.914c-48.661,0-88.25-39.589-88.25-88.25v-58.507h176.501v58.507
					C357.012,217.326,317.423,256.914,268.762,256.914z"/>
				<polygon style="fill:#C0E6ED;" points="180.511,142.711 357.012,127.137 357.012,110.157 180.511,110.157 				"/>
				<path style="fill:#D0EFF4;" d="M180.511,420.108v-58.507c0-48.661,39.589-88.249,88.25-88.249
					c48.661,0,88.25,39.588,88.25,88.249v58.507H180.511z"/>
				<path style="fill:#FFC154;" d="M180.511,420.108v-14.396c0-48.661,39.589-88.249,88.25-88.249
					c48.661,0,88.25,39.588,88.25,88.249v14.396H180.511z"/>
				<path style="fill:#F29538;" d="M180.511,420.108h176.501v-14.396c0-6.233-0.654-12.315-1.888-18.186l-174.612,21.645V420.108z"
					/>
				
					<rect x="159.183" y="413.259" transform="matrix(-1 -1.224647e-16 1.224647e-16 -1 537.5234 858.6097)" style="fill:#83A9FF;" width="219.157" height="32.091"/>
				<path style="fill:#FFC154;" d="M268.762,256.914c29.325,0,55.35-14.381,71.406-36.456
					c-40.877-2.886-105.308,24.196-158.559-37.897C188.294,224.643,224.828,256.914,268.762,256.914z"/>
				<path style="fill:#F29538;" d="M181.609,182.561c40.414,22.89,138.426,14.29,158.559,37.897
					C340.168,220.458,244.642,271.597,181.609,182.561z"/>
				<line style="fill:none;stroke:#FFFFFF;stroke-miterlimit:10;" x1="213.425" y1="208.117" x2="329.596" y2="133.124"/>
				<line style="fill:none;stroke:#FFFFFF;stroke-miterlimit:10;" x1="265.987" y1="189.704" x2="329.596" y2="147.52"/>
				<line style="fill:none;stroke:#FFFFFF;stroke-miterlimit:10;" x1="248.243" y1="357.432" x2="319.553" y2="311.231"/>
				<line style="fill:none;stroke:#FFFFFF;stroke-miterlimit:10;" x1="219.451" y1="391.246" x2="319.553" y2="325.627"/>
			</g>
			<g>
				<path style="fill:#FFC154;" d="M252.597,320.722h-0.462C252.136,320.722,252.305,320.744,252.597,320.722z"/>
				<path style="fill:#FFC154;" d="M275.145,292.278c0-37.185,5.67-36.401,5.67-36.401l-10.563-7.198v-2.031l-1.49,1.015
					l-1.49-1.015v2.031l-10.563,7.198c0,0,5.669-0.784,5.669,36.401c0,26.034-7.788,28.293-9.781,28.444h14.674h2.98h14.674
					C282.933,320.57,275.145,318.312,275.145,292.278z"/>
				<path style="fill:#FFC154;" d="M285.388,320.722h-0.462C285.218,320.744,285.388,320.722,285.388,320.722z"/>
			</g>
			<rect x="159.183" y="84.915" style="fill:#83A9FF;" width="219.157" height="32.091"/>
			
				<rect x="179.757" y="413.259" transform="matrix(-1 -1.224647e-16 1.224647e-16 -1 434.773 858.6097)" style="fill:#1B7BBC;" width="75.26" height="32.091"/>
			<rect x="179.757" y="84.915" style="fill:#1B7BBC;" width="75.26" height="32.091"/>
		</g>
		<rect x="59.639" y="445.35" style="fill:#3E5C70;" width="630.722" height="3.161"/>
		<g>
			<g>
				<rect x="341.181" y="331.133" style="fill:#1B66AA;" width="273.528" height="64.473"/>
				<rect x="527.311" y="331.133" style="fill:#1B7BBC;" width="87.398" height="114.029"/>
				<rect x="341.181" y="331.133" style="fill:#1B7BBC;" width="15.142" height="116.01"/>
				<rect x="341.181" y="331.133" style="fill:#1B7BBC;" width="273.528" height="12.996"/>
				<g>
					<rect x="536.768" y="350.055" style="fill:none;stroke:#1B66AA;stroke-miterlimit:10;" width="68.484" height="24.771"/>
					<rect x="561.282" y="353.278" style="fill:#1B66AA;" width="19.457" height="2.704"/>
				</g>
				<g>
					<rect x="536.768" y="381.796" style="fill:none;stroke:#1B66AA;stroke-miterlimit:10;" width="68.484" height="24.771"/>
					<rect x="561.282" y="385.018" style="fill:#1B66AA;" width="19.457" height="2.704"/>
				</g>
				<g>
					<rect x="536.768" y="413.537" style="fill:none;stroke:#1B66AA;stroke-miterlimit:10;" width="68.484" height="24.771"/>
					<rect x="561.282" y="416.759" style="fill:#1B66AA;" width="19.457" height="2.704"/>
				</g>
			</g>
			<g>
				<g>
					<path style="fill:#165A7F;" d="M367.431,301.869L367.431,301.869L367.431,301.869c1.325,9.853,10.387,16.766,20.239,15.441l0,0
						C386.346,307.457,377.284,300.544,367.431,301.869z"/>
					<path style="fill:#1C77B5;" d="M378.285,293.832L378.285,293.832L378.285,293.832c-4.008,9.098,0.119,19.722,9.217,23.73l0,0
						C391.509,308.464,387.383,297.839,378.285,293.832z"/>
				</g>
				<g>
					<path style="fill:#1C77B5;" d="M407.016,301.869L407.016,301.869L407.016,301.869c-1.325,9.853-10.387,16.766-20.24,15.441l0,0
						C388.102,307.457,397.163,300.544,407.016,301.869z"/>
					<path style="fill:#165A7F;" d="M396.163,293.832L396.163,293.832L396.163,293.832c4.008,9.098-0.119,19.722-9.217,23.73l0,0
						C382.938,308.464,387.065,297.839,396.163,293.832z"/>
				</g>
				<polygon style="fill:#83A9FF;" points="393.236,331.133 379.75,331.133 377.704,315.601 395.282,315.601 				"/>
				<polygon style="fill:#1B7BBC;" points="394.446,321.952 394.784,319.387 378.203,319.387 378.813,324.023 				"/>
			</g>
			<g>
				<g>
					<polygon style="fill:#83A9FF;" points="423.837,327.683 493.265,327.674 478.767,278.856 409.411,278.856 					"/>
					<polygon style="fill:#D0EFF4;" points="489.62,324.954 476.738,281.576 413.051,281.576 425.87,324.964 					"/>
					
						<rect x="423.843" y="327.666" transform="matrix(-1 -1.224647e-16 1.224647e-16 -1 949.2172 658.7992)" style="fill:#1B66AA;" width="101.531" height="3.468"/>
					
						<rect x="423.843" y="327.666" transform="matrix(-1 -1.224647e-16 1.224647e-16 -1 885.2516 658.7992)" style="fill:#165A7F;" width="37.565" height="3.468"/>
				</g>
				<g>
					<circle style="fill:#83A9FF;" cx="439.724" cy="303.75" r="11.409"/>
					<path style="fill:#1B7BBC;" d="M439.724,303.75l5.584-9.949c1.767,0.992,3.238,2.436,4.261,4.184
						c1.024,1.748,1.563,3.738,1.563,5.764H439.724z"/>
					<path style="fill:#ABC9FF;" d="M439.724,303.75h11.409c0,2.375-0.742,4.692-2.121,6.625c-1.379,1.934-3.328,3.389-5.574,4.162
						L439.724,303.75z"/>
				</g>
				<g>
					<polygon style="fill:#1B7BBC;" points="476.699,293.091 453.699,293.091 454.329,295.465 477.329,295.465 					"/>
					<polygon style="fill:#1B7BBC;" points="477.81,298.42 454.81,298.42 455.44,300.794 478.44,300.794 					"/>
					<polygon style="fill:#1B7BBC;" points="478.921,303.75 455.921,303.75 456.551,306.124 479.551,306.124 					"/>
					<polygon style="fill:#1B7BBC;" points="480.032,309.08 457.032,309.08 457.662,311.454 480.662,311.454 					"/>
				</g>
			</g>
			<g>
				<g>
					<g>
						
							<line style="fill:none;stroke:#1B7BBC;stroke-width:0.5;stroke-miterlimit:10;" x1="545.587" y1="304.937" x2="545.587" y2="320.463"/>
						<circle style="fill:#1B7BBC;" cx="545.587" cy="320.129" r="2.111"/>
					</g>
					<g>
						
							<line style="fill:none;stroke:#1B7BBC;stroke-width:0.5;stroke-miterlimit:10;" x1="551.865" y1="304.937" x2="551.865" y2="320.463"/>
						<circle style="fill:#1B7BBC;" cx="551.865" cy="320.129" r="2.111"/>
					</g>
					<g>
						
							<line style="fill:none;stroke:#1B7BBC;stroke-width:0.5;stroke-miterlimit:10;" x1="558.143" y1="304.937" x2="558.143" y2="320.463"/>
						<circle style="fill:#1B7BBC;" cx="558.143" cy="320.129" r="2.111"/>
					</g>
					<g>
						
							<line style="fill:none;stroke:#1B7BBC;stroke-width:0.5;stroke-miterlimit:10;" x1="564.421" y1="304.937" x2="564.421" y2="320.463"/>
						<path style="fill:#1B7BBC;" d="M566.532,320.129c0,1.166-0.945,2.111-2.111,2.111c-1.166,0-2.111-0.945-2.111-2.111
							c0-1.166,0.945-2.111,2.111-2.111C565.587,318.018,566.532,318.964,566.532,320.129z"/>
					</g>
					<g>
						
							<line style="fill:none;stroke:#1B7BBC;stroke-width:0.5;stroke-miterlimit:10;" x1="570.698" y1="304.937" x2="570.698" y2="320.463"/>
						<circle style="fill:#1B7BBC;" cx="570.698" cy="320.129" r="2.111"/>
					</g>
					<g>
						
							<line style="fill:none;stroke:#1B7BBC;stroke-width:0.5;stroke-miterlimit:10;" x1="576.976" y1="304.937" x2="576.976" y2="320.463"/>
						<circle style="fill:#1B7BBC;" cx="576.976" cy="320.129" r="2.111"/>
					</g>
				</g>
				<polygon style="fill:#1B66AA;" points="534.457,300.794 534.457,331.133 540.811,331.133 540.811,306.648 581.752,306.648 
					581.752,331.133 588.107,331.133 588.107,300.794 				"/>
			</g>
		</g>
		<g>
			<g>
				<g>
					<path style="fill:none;stroke:#FFB692;stroke-width:9;stroke-miterlimit:10;" d="M233.563,251.418
						c-39.307,13.211-67.628-0.899-78-36.717"/>
					<path style="fill:#1B7BBC;" d="M156.983,236.587l-9.213-14.5c-2.386-4.195-0.92-9.53,3.274-11.916h0
						c4.195-2.386,9.529-0.92,11.915,3.274l9.213,14.499L156.983,236.587z"/>
					<g>
						<path style="fill:#FFB692;" d="M225.421,253.592c-3.356-6.22,6.42-9.392,6.42-9.392l3.993-5.965c0,0,5.158,3.787,0.519,8.215
							c0,0,8.975-1.194,12,1.309c1.42,1.175,2.318,8.276,0.992,11.883c-0.281,0.765-1.131,1.143-1.888,0.842
							c-1.818-0.723-5.578-1.803-9.394-0.383C232.745,262.081,224.655,261.792,225.421,253.592z"/>
						<path style="fill:#D88D87;" d="M236.352,246.451c0,0,1.027,5.158-4.487,7.819c0,0,4.441-3.189,4.082-7.761L236.352,246.451z"
							/>
						<path style="fill:#D88D87;" d="M237.022,256.913c0,0,1.416-4.021,0.618-8.212
							C237.641,248.702,240.873,251.978,237.022,256.913z"/>
						<g>
							<path style="fill:#D88D87;" d="M237.514,255.374l0.148-0.314c0,0,7.229,0.034,11.928,3.768
								c-0.03,0.117-0.061,0.232-0.094,0.344C247.577,257.951,242.838,255.334,237.514,255.374z"/>
							<path style="fill:#D88D87;" d="M238.296,250.631l-0.171-0.534c0,0,6.914-2.119,11.49,0.864
								c0.255,1.332,0.396,2.906,0.373,4.436c-1.509-0.906-6.153-3.295-11.728-2.271l-0.033-0.43c0,0,6.948-2.156,11.629,1.887
								l-0.152-3.057C249.704,251.526,244.699,248.503,238.296,250.631z"/>
						</g>
					</g>
				</g>
				<g>
					<g>
						
							<line style="fill:none;stroke:#284159;stroke-width:13;stroke-miterlimit:10;" x1="149.798" y1="292.589" x2="149.798" y2="445.164"/>
						<g>
							<path style="fill:#FF8B0D;" d="M159.173,421.481l-0.087,9.87c0,0,12.356,0.175,15.415,13.999l-33.962-0.03l0.543-23.998
								L159.173,421.481z"/>
							<path style="fill:#19283B;" d="M150.168,431.89c0.041,2.142-1.274,3.904-2.937,3.935c-1.663,0.032-3.045-1.679-3.086-3.82
								c-0.041-2.142,1.274-3.904,2.937-3.935C148.745,428.038,150.127,429.749,150.168,431.89z"/>
						</g>
					</g>
					<path style="fill:#284159;" d="M145.284,266.835h-12.827c-9.462,0-17.202,7.722-17.202,17.16v0
						c0,9.438,7.741,17.16,17.202,17.16h12.827c9.462,0,17.203-7.722,17.203-17.16v0
						C162.487,274.557,154.745,266.835,145.284,266.835z"/>
					<g>
						
							<line style="fill:none;stroke:#284159;stroke-width:13;stroke-miterlimit:10;" x1="128.795" y1="292.589" x2="128.795" y2="445.164"/>
						<g>
							<path style="fill:#ECB220;" d="M138.169,421.481l-0.087,9.87c0,0,12.356,0.175,15.415,13.999l-33.962-0.03l0.543-23.998
								L138.169,421.481z"/>
							<path style="fill:#19283B;" d="M129.165,431.89c0.041,2.142-1.274,3.904-2.937,3.935c-1.663,0.032-3.045-1.679-3.086-3.82
								s1.274-3.904,2.937-3.935C127.742,428.038,129.123,429.749,129.165,431.89z"/>
						</g>
					</g>
					<g>
						<g>
							<path style="fill:#0E5EA0;" d="M165.328,279.546c-4.747,2.311-13.5,5.815-24.999,6.161
								c-11.783,0.355-20.917-2.772-25.809-4.848c1.788-7.797,3.575-15.593,5.363-23.39l-4.185-32.495
								c-0.216-8.317,3.741-15.167,12.078-15.382l16.247-0.42c10.749-0.278,16.337,3.476,16.615,14.199l-1.852,34.229
								L165.328,279.546z"/>
						</g>
						<path style="fill:none;stroke:#A83B5D;stroke-miterlimit:10;" d="M115.129,189.449"/>
						<path style="fill:#FFB692;" d="M126.637,211.845c-0.281,4.226,5.232,8.03,12.313,8.498c7.081,0.468,13.048-2.579,13.328-6.804
							c0.281-4.226-5.232-8.031-12.312-8.498C132.885,204.573,126.918,207.619,126.637,211.845z"/>
						<g>
							<path style="fill:#54321A;" d="M116.318,208.596h45.898v-42.646c0-12.38-10.036-22.417-22.417-22.417h-1.064
								c-12.38,0-22.417,10.036-22.417,22.417V208.596z"/>
							
								<rect x="154.861" y="174.192" transform="matrix(-1 -1.224647e-16 1.224647e-16 -1 312.8348 382.7879)" style="fill:#875330;" width="3.112" height="34.405"/>
							
								<rect x="120.573" y="174.192" transform="matrix(-1 -1.224647e-16 1.224647e-16 -1 244.2581 382.7879)" style="fill:#875330;" width="3.112" height="34.405"/>
							<path style="fill:#D88D87;" d="M132.805,152.135h12.924c0.311,0,0.563-0.251,0.563-0.561l0,0c0-0.31-0.252-0.561-0.563-0.561
								h-12.924c-0.311,0-0.563,0.251-0.563,0.561l0,0C132.242,151.884,132.494,152.135,132.805,152.135z"/>
							<path style="fill:#D88D87;" d="M119.037,181.735h40.459c1.878,0,3.4-1.522,3.4-3.4v-0.144c0-1.878-1.522-3.4-3.4-3.4h-40.46
								c-1.878,0-3.4,1.522-3.4,3.4v0.144C115.637,180.212,117.159,181.735,119.037,181.735z"/>
							<path style="fill:#AA635F;" d="M161.074,178.297v-0.069c0-0.895-0.725-1.62-1.62-1.62h-40.375c-0.895,0-1.62,0.725-1.62,1.62
								v0.069c0,0.895,0.725,1.62,1.62,1.62h40.375C160.349,179.917,161.074,179.191,161.074,178.297z"/>
							<path style="fill:#FFB692;" d="M139.267,173.411L139.267,173.411c5.956,0,10.784,4.816,10.784,10.757v29.119h-21.568v-29.119
								C128.483,178.228,133.311,173.411,139.267,173.411z"/>
							<path style="fill:#D88D87;" d="M150.051,177.618v18.362c0,5.941-4.828,10.758-10.784,10.758l0,0
								c-5.956,0-10.784-4.816-10.784-10.758v-18.362"/>
							<path style="fill:#FFB692;" d="M139.267,202.302L139.267,202.302c4.458,0,17.609-5.268,17.609-15.974l1.822-20.143
								c0-10.263-8.34-18.583-18.629-18.583h-1.605c-10.288,0-18.629,8.32-18.629,18.583l1.822,20.143
								C121.658,197.034,132.926,202.302,139.267,202.302z"/>
							<g>
								<path style="fill:#252538;" d="M145.492,185.526c-2.027,0.198-4.892,0.341-7.713,0.019
									c-1.856-0.212-2.771,2.307-1.402,3.916c1.457,1.712,3.604,3.114,6.611,2.614c2.465-0.41,3.839-1.441,4.589-2.585
									C148.641,187.871,147.299,185.35,145.492,185.526z"/>
								<path style="fill:#FF9292;" d="M142.988,192.075c-3.007,0.501-5.154-0.902-6.611-2.614
									c-0.205-0.242-0.353-0.504-0.461-0.774c0.923-0.739,2.265-1.288,4.236-1.364c3.044-0.117,4.98,1.548,6.192,3.432
									c0.002,0.004,0.004,0.008,0.006,0.011C145.556,191.353,144.473,191.828,142.988,192.075z"/>
								<path style="fill:#FFABAB;" d="M143.773,189.317c-0.161,0.57-1.293,0.776-2.53,0.461c-1.236-0.315-2.108-1.032-1.947-1.602
									c0.161-0.57,1.294-0.776,2.53-0.461C143.062,188.03,143.934,188.747,143.773,189.317z"/>
								<path style="fill:#FFFFFF;" d="M145.492,185.526c-2.027,0.198-4.892,0.341-7.713,0.019c-1.14-0.13-1.922,0.771-2.041,1.857
									c1.855,0.952,4.436,1.444,7.248,1.236c1.803-0.133,3.47-0.538,4.881-1.131C147.584,186.376,146.631,185.415,145.492,185.526
									z"/>
							</g>
							<g>
								<path style="fill:#D88D87;" d="M148.423,173.025h4.293c0.977,0,1.77,0.79,1.77,1.765c0,0.975-0.792,1.765-1.77,1.765h-4.293
									c-0.977,0-1.77-0.79-1.77-1.765C146.653,173.815,147.445,173.025,148.423,173.025z"/>
								<path style="fill:#D88D87;" d="M129.127,173.025h4.293c0.977,0,1.769,0.79,1.769,1.765c0,0.975-0.792,1.765-1.769,1.765
									h-4.293c-0.977,0-1.77-0.79-1.77-1.765C127.358,173.815,128.15,173.025,129.127,173.025z"/>
							</g>
							<g>
								<path style="fill:#252538;" d="M150.486,174.701c1.256,0,2.274,1.016,2.274,2.269c0,1.253-1.018,2.268-2.274,2.268
									c-1.256,0-2.274-1.016-2.274-2.268C148.212,175.716,149.23,174.701,150.486,174.701z"/>
								<path style="fill:#252538;" d="M133.255,174.701c1.256,0,2.274,1.016,2.274,2.269c0,1.253-1.018,2.268-2.274,2.268
									c-1.256,0-2.274-1.016-2.274-2.268C130.981,175.716,131.999,174.701,133.255,174.701z"/>
								<polygon style="fill:#252538;" points="131.464,176.845 129.314,174.701 133.314,174.701 								"/>
								<polygon style="fill:#252538;" points="152.635,176.845 150.486,174.701 154.486,174.701 								"/>
							</g>
							<g>
								<path style="fill:#54321A;" d="M128.018,170.995l3.942-1.239c0.864-0.271,1.785,0.207,2.057,1.069
									c0.272,0.862-0.208,1.78-1.072,2.052l-3.942,1.239c-0.864,0.271-1.785-0.207-2.057-1.069
									C126.675,172.185,127.154,171.266,128.018,170.995z"/>
								<path style="fill:#54321A;" d="M148.909,169.756l3.942,1.239c0.864,0.272,1.344,1.19,1.072,2.052
									c-0.272,0.862-1.193,1.34-2.057,1.069l-3.942-1.239c-0.864-0.271-1.344-1.19-1.071-2.052
									C147.124,169.963,148.045,169.485,148.909,169.756z"/>
							</g>
							<path style="fill:#D88D87;" d="M135.335,197.111c-0.084,1.025,1.836,2.018,4.29,2.219c2.454,0.201,4.511-0.467,4.596-1.491
								c0.084-1.025-1.837-2.018-4.29-2.219C137.477,195.418,135.419,196.086,135.335,197.111z"/>
							<path style="fill:#D88D87;" d="M138.369,183.723h6.885v-0.5c0-1.896-1.541-3.434-3.442-3.434l0,0
								c-1.901,0-3.442,1.537-3.442,3.434V183.723z"/>
							<path style="fill:#54321A;" d="M137.648,143.534h3.238c11.78,0,21.33,9.526,21.33,21.277v3.948h-21.399l-3.565-3.556v3.556
								h-0.288l-12.071-12.041v12.041h-8.575v-3.948C116.318,153.06,125.868,143.534,137.648,143.534z"/>
							<path style="fill:#875330;" d="M123.085,149.272c0.445-0.415,0.908-0.81,1.387-1.187l8.277,8.257v-4.867l10.312,10.287
								h18.933c0.086,0.599,0.148,1.204,0.183,1.818h-19.872l-7.734-7.716v4.867L123.085,149.272z"/>
						</g>
					</g>
				</g>
				<g>
					<polygon style="fill:#165A7F;" points="228.164,279.602 158.736,279.593 173.234,230.776 242.59,230.776 					"/>
					<rect x="126.627" y="279.585" style="fill:#83A9FF;" width="101.531" height="3.468"/>
					<rect x="158.739" y="279.585" style="fill:#1B7BBC;" width="69.419" height="3.468"/>
					<polygon style="fill:#83A9FF;" points="173.234,230.776 170.598,230.776 155.895,279.741 158.739,279.585 					"/>
					<path style="fill:#1B7BBC;" d="M210.58,260.101c-1.245,3.824-4.908,6.059-8.182,4.993c-3.273-1.066-4.918-5.029-3.673-8.853
						c1.245-3.823,4.908-6.059,8.182-4.993C210.18,252.314,211.824,256.278,210.58,260.101z"/>
				</g>
				<g>
					<path style="fill:none;stroke:#FFB692;stroke-width:10;stroke-miterlimit:10;" d="M111.007,232.308
						c-20.534,30.784,3.523,64.301,40.174,53.692"/>
					<path style="fill:#1B7BBC;" d="M117.957,241.666l9.847-16.432c2.538-4.745,0.747-10.65-3.998-13.187v0
						c-4.745-2.537-10.649-0.748-13.187,3.998l-9.847,16.432L117.957,241.666z"/>
					<g>
						<g>
							<path style="fill:#FFB692;" d="M144.801,286.716c-4.445-5.633,4.778-10.517,4.778-10.517l2.95-6.665
								c0,0,5.822,2.885,1.956,8.126c0,0,6.392-1.105,9.75-4.606c4.1-4.273,7.023,9.384,4.334,14.762
								c-1.46,2.921-6.177,1.754-9.746,3.843C153.853,294.57,145.47,295.052,144.801,286.716z"/>
						</g>
						<g>
							<path style="fill:#D88D87;" d="M157.65,284.463l0.092,0.521c0,0,6.992-0.376,11.844-3.657
								c-0.013-0.32-0.031-0.641-0.057-0.961C167.706,281.865,164.015,284.049,157.65,284.463z"/>
							<path style="fill:#D88D87;" d="M158.617,288.265c0,0,6.309-0.272,10.584-2.245c0.076-0.314,0.138-0.641,0.192-0.976
								c-1.805,0.879-5.59,2.377-10.889,2.665L158.617,288.265z"/>
							<path style="fill:#D88D87;" d="M156.735,280.961c0,0,7.141-0.165,11.943-5.073c-0.137-0.428-0.287-0.83-0.449-1.201
								c-1.82,1.973-5.452,4.923-11.537,5.912L156.735,280.961z"/>
						</g>
					</g>
				</g>
			</g>
			<g>
				<path style="fill:#FFFFFF;" d="M261.166,153.155h-48.288c-4.464,0-8.083,3.619-8.083,8.083v40.155
					c0,4.464,3.619,8.083,8.083,8.083h2.409v5.999l5.999-5.999h39.879c4.464,0,8.083-3.619,8.083-8.083v-40.155
					C269.25,156.774,265.63,153.155,261.166,153.155z"/>
				<g>
					<path style="fill:#83A9FF;" d="M237.023,170.038c-6.461,0-11.718,5.256-11.718,11.717c0,6.461,5.257,11.717,11.718,11.717
						c6.461,0,11.717-5.256,11.717-11.717C248.74,175.295,243.484,170.038,237.023,170.038z M237.023,190.896
						c-5.041,0-9.141-4.101-9.141-9.141s4.101-9.14,9.141-9.14c5.04,0,9.14,4.1,9.14,9.14S242.063,190.896,237.023,190.896z"/>
					<polygon style="fill:#83A9FF;" points="242.813,178.166 235.109,185.871 232.795,183.556 232.088,184.263 235.109,187.285 
						243.52,178.873 					"/>
				</g>
			</g>
		</g>
		<g>
			<g>
				<path style="fill:none;stroke:#A56F62;stroke-width:9;stroke-miterlimit:10;" d="M558.254,292.762
					c39.151-13.666,52.872-42.177,39.103-76.832"/>
				<path style="fill:#1B7BBC;" d="M609.654,234.09l-1.613-17.103c-0.687-4.777-5.116-8.092-9.893-7.405l0,0
					c-4.777,0.687-8.092,5.116-7.405,9.893l1.613,17.103L609.654,234.09z"/>
				<g>
					<path style="fill:#A56F62;" d="M566.019,289.487c-1.162-6.971-10.83-3.483-10.83-3.483l-6.812-2.264
						c0,0-1.753,6.154,4.628,6.808c0,0-7.822,4.56-8.677,8.392c-0.401,1.799,3.243,7.959,6.503,9.995
						c0.691,0.432,1.594,0.21,2.008-0.492c0.993-1.686,3.301-4.845,7.186-6.062C565.438,300.685,571.652,295.495,566.019,289.487z"
						/>
					<path style="fill:#8C5C53;" d="M553.005,290.549c0,0,2.351,4.704,8.339,3.425c0,0-5.464,0.204-7.983-3.628L553.005,290.549z"/>
					<path style="fill:#8C5C53;" d="M558.891,299.225c0,0-3.584-2.308-5.523-6.108C553.367,293.117,552.823,297.686,558.891,299.225
						z"/>
					<g>
						<path style="fill:#8C5C53;" d="M557.558,298.31l-0.31-0.157c0,0-5.689,4.46-7.112,10.29c0.095,0.074,0.191,0.146,0.285,0.214
							C551.189,306.516,553.328,301.543,557.558,298.31z"/>
						<path style="fill:#8C5C53;" d="M554.032,295.043l-0.192-0.527c0,0-6.761,2.565-8.547,7.728
							c0.616,1.208,1.469,2.539,2.425,3.733c0.637-1.641,2.84-6.376,7.872-8.985l-0.237-0.36c0,0-6.811,2.557-8.03,8.621
							l-1.754-2.508C545.57,302.745,547.669,297.288,554.032,295.043z"/>
					</g>
				</g>
			</g>
			<path style="fill:#E71C2E;" d="M541.489,187.482c0,3.787-3.07,6.857-6.857,6.857s-6.857-3.07-6.857-6.857
				c0-3.787,3.07-6.857,6.857-6.857S541.489,183.695,541.489,187.482z"/>
			<g>
				<g>
					
						<line style="fill:none;stroke:#284159;stroke-width:13;stroke-miterlimit:10;" x1="605.625" y1="291.43" x2="605.625" y2="445.162"/>
					<g>
						<path style="fill:#FF8B0D;" d="M596.202,421.3l0.087,9.945c0,0-12.419,0.176-15.494,14.105l34.135-0.03l-0.545-24.18
							L596.202,421.3z"/>
						<path style="fill:#19283B;" d="M605.253,431.788c-0.041,2.158,1.28,3.933,2.952,3.965c1.672,0.032,3.06-1.691,3.102-3.849
							c0.041-2.158-1.28-3.933-2.952-3.965C606.683,427.907,605.295,429.63,605.253,431.788z"/>
					</g>
				</g>
				<path style="fill:#284159;" d="M610.162,265.481h12.893c9.51,0,17.29,7.78,17.29,17.29v0c0,9.51-7.781,17.29-17.29,17.29
					h-12.893c-9.51,0-17.29-7.781-17.29-17.29v0C592.872,273.262,600.652,265.481,610.162,265.481z"/>
				<g>
					<path style="fill:#0E5EA0;" d="M594.679,273.08c-0.01,1.895,1.057,3.644,2.767,4.461c3.785,1.809,9.281,3.789,16.104,4.268
						c9.604,0.674,17.318-1.944,21.923-4.063c1.735-0.798,2.838-2.542,2.848-4.452c0.092-17.222,0.185-33.005,0.277-50.124
						c0.053-9.888-7.92-17.949-17.808-18.001l-9.021-0.048c-9.233-0.049-16.758,7.396-16.807,16.63L594.679,273.08z"/>
				</g>
				<g>
					
						<line style="fill:none;stroke:#284159;stroke-width:13;stroke-miterlimit:10;" x1="626.735" y1="291.43" x2="626.735" y2="445.162"/>
					<g>
						<path style="fill:#ECB220;" d="M617.313,421.3l0.087,9.945c0,0-12.419,0.176-15.494,14.105l34.135-0.03l-0.545-24.18
							L617.313,421.3z"/>
						<path style="fill:#19283B;" d="M626.364,431.788c-0.041,2.158,1.28,3.933,2.952,3.965c1.672,0.032,3.06-1.691,3.102-3.849
							c0.041-2.158-1.28-3.933-2.952-3.965C627.794,427.907,626.405,429.63,626.364,431.788z"/>
					</g>
				</g>
				<g>
					<path style="fill:none;stroke:#A56F62;stroke-width:9;stroke-miterlimit:10;" d="M624.758,227.014
						c-64.229,34.302-85.658-22.731-85.658-22.731"/>
					<g>
						<g>
							<path style="fill:#A56F62;" d="M544.513,205.533c6.249-3.528-0.434-11.543-0.434-11.543l-0.203-7.285
								c0,0-6.481,0.463-4.891,6.778c0,0-5.495-3.446-7.276-7.959c-2.174-5.508-10.056,6.021-9.607,12.017
								c0.244,3.257,5.051,3.965,7.561,7.251C533.159,209.368,540.734,212.992,544.513,205.533z"/>
						</g>
						<g>
							<path style="fill:#8C5C53;" d="M533.477,198.576l-0.283,0.447c0,0-6.327-2.999-9.573-7.875
								c0.133-0.291,0.271-0.581,0.417-0.867C525.157,192.359,527.745,195.78,533.477,198.576z"/>
							<path style="fill:#8C5C53;" d="M531.141,201.728c0,0-5.735-2.643-8.943-6.09c0.049-0.319,0.115-0.645,0.192-0.976
								c1.337,1.497,4.272,4.318,9.066,6.594L531.141,201.728z"/>
							<path style="fill:#8C5C53;" d="M535.652,195.683c0,0-6.546-2.86-9.129-9.223c0.289-0.344,0.58-0.659,0.871-0.941
								c0.936,2.516,3.179,6.623,8.434,9.844L535.652,195.683z"/>
						</g>
					</g>
					<path style="fill:#1B7BBC;" d="M606.921,228.938l14.203-9.664c4.118-2.517,9.496-1.219,12.013,2.899v0
						c2.517,4.118,1.219,9.496-2.899,12.012l-14.203,9.664L606.921,228.938z"/>
				</g>
				<g>
					<g>
						<path style="fill:#A56F62;" d="M626.202,207.167c0.644,3.774-3.949,7.707-10.258,8.783
							c-6.309,1.076-11.945-1.111-12.589-4.885c-0.644-3.774,3.949-7.707,10.258-8.783
							C619.922,201.205,625.558,203.392,626.202,207.167z"/>
					</g>
					<path style="fill:#A56F62;" d="M615.139,150.71l0.843,0.005c5.405,0.029,9.75,6.895,9.705,15.337l-0.222,41.852l-20.415-0.108
						l0.222-41.852C605.317,157.502,609.735,150.682,615.139,150.71z"/>
					<path style="fill:#8C5C53;" d="M615.139,153.491l0.843,0.004c5.405,0.029,9.752,6.397,9.711,14.223l-0.152,28.594
						c-0.03,5.637-4.624,10.183-10.261,10.153l0,0c-5.637-0.03-10.183-4.624-10.153-10.261l0.152-28.594
						C605.32,159.784,609.735,153.463,615.139,153.491z"/>
					<path style="fill:#D88D87;" d="M610.726,188.639c0.16,0.957,2.143,1.422,4.429,1.04c2.286-0.382,4.009-1.468,3.849-2.425
						c-0.16-0.957-2.143-1.422-4.428-1.04C612.289,186.597,610.566,187.683,610.726,188.639z"/>
					<g>
						<g>
							<path style="fill:#252538;" d="M615.369,131.591c1.616,0,3.064,2.105,4.619,2.326c1.594,0.227,3.573-1.383,5.086-0.939
								c1.539,0.451,2.335,2.879,3.774,3.537c1.454,0.665,3.81-0.318,5.143,0.54c1.342,0.864,1.421,3.417,2.621,4.459
								c1.203,1.043,3.742,0.76,4.785,1.964c1.041,1.201,0.402,3.673,1.266,5.014c0.859,1.333,3.375,1.774,4.041,3.229
								c0.658,1.438-0.652,3.629-0.201,5.168c0.443,1.513,2.733,2.648,2.96,4.241c0.222,1.555-1.654,3.285-1.654,4.901
								c0,1.616,1.875,3.347,1.654,4.902c-0.227,1.594-2.516,2.729-2.96,4.241c-0.451,1.539,0.859,3.73,0.201,5.168
								c-0.665,1.454-3.182,1.895-4.041,3.229c-0.864,1.342-0.225,3.814-1.266,5.014c-1.043,1.203-3.582,0.92-4.785,1.963
								c-1.201,1.041-1.28,3.595-2.621,4.458c-1.333,0.859-3.689-0.125-5.143,0.54c-1.438,0.658-2.234,3.086-3.773,3.537
								c-1.513,0.443-3.493-1.167-5.086-0.94c-1.555,0.222-3.003,2.326-4.619,2.326c-1.616,0-3.065-2.105-4.62-2.326
								c-1.594-0.227-3.573,1.383-5.086,0.939c-1.539-0.451-2.335-2.879-3.774-3.537c-1.454-0.665-3.81,0.318-5.144-0.54
								c-1.341-0.864-1.42-3.417-2.621-4.459c-1.203-1.043-3.741-0.76-4.785-1.964c-1.041-1.201-0.402-3.673-1.266-5.014
								c-0.859-1.333-3.375-1.774-4.04-3.229c-0.658-1.438,0.652-3.629,0.201-5.168c-0.443-1.513-2.733-2.648-2.96-4.241
								c-0.222-1.555,1.654-3.285,1.654-4.902c0-1.616-1.875-3.347-1.654-4.902c0.227-1.594,2.516-2.729,2.96-4.242
								c0.451-1.539-0.859-3.73-0.201-5.168c0.665-1.454,3.182-1.895,4.041-3.229c0.864-1.342,0.225-3.814,1.266-5.014
								c1.043-1.203,3.582-0.92,4.785-1.963c1.201-1.041,1.28-3.595,2.621-4.458c1.333-0.859,3.689,0.125,5.143-0.54
								c1.438-0.658,2.234-3.086,3.773-3.537c1.513-0.443,3.493,1.167,5.086,0.939C612.305,133.696,613.753,131.591,615.369,131.591
								z"/>
						</g>
						<g>
							<path style="fill:#252538;" d="M595.213,175.413h39.031v-4.015c0-10.778-8.737-19.515-19.515-19.515h0
								c-10.778,0-19.515,8.737-19.515,19.515V175.413z"/>
							<path style="fill:#8C5C53;" d="M594.634,179.805h40.277c1.762,0,3.19-1.428,3.19-3.19l0,0c0-1.762-1.428-3.191-3.19-3.191
								h-40.277c-1.762,0-3.191,1.429-3.191,3.191l0,0C591.443,178.377,592.871,179.805,594.634,179.805z"/>
							<path style="fill:#AA635F;" d="M636.431,176.615L636.431,176.615c0-0.84-0.681-1.52-1.52-1.52h-40.277
								c-0.84,0-1.52,0.681-1.52,1.52l0,0c0,0.84,0.681,1.52,1.52,1.52h40.277C635.75,178.135,636.431,177.454,636.431,176.615z"/>
							<path style="fill:#A56F62;" d="M614.772,203.942L614.772,203.942c9.836,0,17.81-7.974,17.81-17.81v-16.907
								c0-9.43-7.645-17.075-17.075-17.075h-1.471c-9.43,0-17.075,7.645-17.075,17.075v16.907
								C596.962,195.968,604.936,203.942,614.772,203.942z"/>
							<g>
								<path style="fill:#252538;" d="M610.193,186.186c1.911-0.39,4.574-1.065,7.066-2.155c1.639-0.717,3.188,1.337,2.389,3.199
									c-0.851,1.981-2.42,3.873-5.314,4.26c-2.372,0.317-3.92-0.241-4.931-1.079C607.973,189.224,608.49,186.532,610.193,186.186z
									"/>
								<path style="fill:#FF9292;" d="M614.334,191.49c2.894-0.387,4.463-2.279,5.314-4.26c0.12-0.279,0.181-0.562,0.203-0.84
									c-1.053-0.418-2.437-0.544-4.263-0.058c-2.82,0.75-4.122,2.823-4.699,4.893c-0.001,0.004-0.001,0.008-0.003,0.012
									C611.78,191.551,612.906,191.681,614.334,191.49z"/>
								<path style="fill:#FFABAB;" d="M612.838,189.18c0.308,0.478,1.403,0.348,2.446-0.289c1.043-0.637,1.638-1.541,1.33-2.018
									c-0.308-0.477-1.403-0.348-2.446,0.289C613.125,187.799,612.529,188.703,612.838,189.18z"/>
								<path style="fill:#FFFFFF;" d="M610.193,186.186c1.911-0.39,4.574-1.065,7.066-2.155c1.006-0.44,1.977,0.166,2.392,1.13
									c-1.429,1.396-3.653,2.574-6.286,3.175c-1.688,0.385-3.328,0.483-4.787,0.337
									C608.519,187.555,609.12,186.404,610.193,186.186z"/>
							</g>
							<path style="fill:#252538;" d="M612.434,151.598h4.589c9.511,0,17.221,7.71,17.221,17.221v1.304
								c0,0.137-0.006,0.272-0.016,0.406c-0.208,2.581-4.109,2.342-4.109-0.247v-0.628c0-4.573-3.707-8.28-8.28-8.28h-14.22
								c-4.573,0-8.28,3.707-8.28,8.28v0.628c0,2.589-3.901,2.828-4.109,0.247c-0.011-0.134-0.016-0.27-0.016-0.406v-1.304
								C595.213,159.308,602.923,151.598,612.434,151.598z"/>
							<g>
								<path style="fill:#8C5C53;" d="M619.603,172.811h3.935c0.896,0,1.622,0.726,1.622,1.622c0,0.896-0.726,1.622-1.622,1.622
									h-3.935c-0.896,0-1.622-0.726-1.622-1.622C617.981,173.537,618.707,172.811,619.603,172.811z"/>
								<path style="fill:#8C5C53;" d="M601.917,172.811h3.935c0.896,0,1.622,0.726,1.622,1.622c0,0.896-0.726,1.622-1.622,1.622
									h-3.935c-0.896,0-1.622-0.726-1.622-1.622C600.295,173.537,601.021,172.811,601.917,172.811z"/>
							</g>
							<g>
								<path style="fill:#252538;" d="M620.668,172.348c1.151,0,2.084,0.934,2.084,2.085c0,1.151-0.933,2.084-2.084,2.084
									c-1.151,0-2.085-0.933-2.085-2.084C618.583,173.281,619.516,172.348,620.668,172.348z"/>
								<path style="fill:#252538;" d="M604.874,172.348c1.151,0,2.085,0.934,2.085,2.085c0,1.151-0.933,2.084-2.085,2.084
									c-1.151,0-2.084-0.933-2.084-2.084C602.79,173.281,603.723,172.348,604.874,172.348z"/>
							</g>
							<g>
								<path style="fill:#252538;" d="M602.134,168.517l3.613-1.138c0.792-0.249,1.636,0.19,1.885,0.982
									c0.249,0.792-0.19,1.636-0.982,1.885l-3.613,1.138c-0.792,0.249-1.636-0.19-1.885-0.982
									C600.902,169.611,601.342,168.767,602.134,168.517z"/>
								<path style="fill:#252538;" d="M621.282,167.379l3.613,1.138c0.792,0.249,1.231,1.094,0.982,1.885
									c-0.25,0.792-1.094,1.231-1.885,0.982l-3.613-1.138c-0.792-0.249-1.232-1.094-0.982-1.885
									C619.646,167.569,620.49,167.13,621.282,167.379z"/>
							</g>
							<path style="fill:#8C5C53;" d="M610.882,195.523c0.289,0.9,2.265,1.069,4.413,0.38c2.149-0.69,3.656-1.978,3.368-2.877
								c-0.289-0.899-2.265-1.07-4.413-0.38C612.101,193.336,610.593,194.624,610.882,195.523z"/>
							<g>
								<path style="fill:#D88D87;" d="M612.413,183.091L612.413,183.091c1.638,0,2.966-1.328,2.966-2.966v-4.81
									c0-1.638-1.328-2.966-2.966-2.966l0,0c-1.638,0-2.966,1.328-2.966,2.966v4.81
									C609.447,181.763,610.775,183.091,612.413,183.091z"/>
								<path style="fill:#F79C97;" d="M610.837,181.407L610.837,181.407c0.433,0,0.784-0.351,0.784-0.784v-5.568
									c0-0.433-0.351-0.784-0.784-0.784l0,0c-0.433,0-0.784,0.351-0.784,0.784v5.568
									C610.053,181.056,610.404,181.407,610.837,181.407z"/>
							</g>
						</g>
					</g>
				</g>
				<g>
					<path style="fill:none;stroke:#EDCB3A;stroke-miterlimit:10;" d="M625.458,174.271c0,2.781-2.254,5.035-5.035,5.035
						c-2.781,0-5.035-2.254-5.035-5.035s2.254-5.035,5.035-5.035C623.204,169.236,625.458,171.49,625.458,174.271z"/>
					<path style="fill:none;stroke:#EDCB3A;stroke-miterlimit:10;" d="M609.909,174.271c0,2.781-2.254,5.035-5.035,5.035
						s-5.035-2.254-5.035-5.035s2.254-5.035,5.035-5.035S609.909,171.49,609.909,174.271z"/>
					<line style="fill:none;stroke:#EDCB3A;stroke-miterlimit:10;" x1="625.16" y1="172.811" x2="633.034" y2="172.811"/>
					<line style="fill:none;stroke:#EDCB3A;stroke-miterlimit:10;" x1="595.493" y1="172.811" x2="599.839" y2="172.811"/>
					<line style="fill:none;stroke:#EDCB3A;stroke-miterlimit:10;" x1="608.419" y1="170.696" x2="616.878" y2="170.696"/>
				</g>
			</g>
		</g>
	</g>
</g>
</svg>
